<svg xmlns="http://www.w3.org/2000/svg" viewBox="0 0 44.19 44.19"><defs><style>.cls-1{fill:#20b2ff;}.cls-2{fill:#fff;stroke:#fff;stroke-miterlimit:10;stroke-width:0.5px;}</style></defs><title>icon-resi</title><g id="Layer_2" data-name="Layer 2"><g id="Layer_1-2" data-name="Layer 1"><circle class="cls-1" cx="22.09" cy="22.09" r="22.09"/><path class="cls-2" d="M34.24,21.53,22.83,10.12a.88.88,0,0,0-1.24,0L9.95,21.74A.88.88,0,0,0,11.19,23l2.15-2.15V32a2.31,2.31,0,0,0,2.31,2.31H28.76A2.31,2.31,0,0,0,31.07,32V20.85L33,22.77a.88.88,0,0,0,1.24-1.25ZM29.31,19.2V32a.55.55,0,0,1-.55.55H15.65A.55.55,0,0,1,15.1,32V19.2a.88.88,0,0,0,0-.11L22.21,12l7.11,7.11A.88.88,0,0,0,29.31,19.2Z"/></g></g></svg>