<svg xmlns="http://www.w3.org/2000/svg" viewBox="0 0 44.19 44.19"><defs><style>.cls-1{fill:#48b885;}.cls-2{fill:#fff;}</style></defs><title>icon-retail</title><g id="Layer_2" data-name="Layer 2"><g id="Layer_1-2" data-name="Layer 1"><circle class="cls-1" cx="22.09" cy="22.09" r="22.09"/><g id="shop"><path class="cls-2" d="M33.8,20.3a.93.93,0,0,0-.11-.43L30.9,14.58V11.19A.89.89,0,0,0,30,10.3H14.22a.91.91,0,0,0-.94.89v3.39L10.5,19.86a.93.93,0,0,0-.11.43,2.15,2.15,0,0,0,1,1.77v9.66a2.15,2.15,0,0,0,2.12,2.16H30.72a2.16,2.16,0,0,0,2.13-2.16V22.06A2.18,2.18,0,0,0,33.8,20.3Zm-4.75-8.14v1.75H15.15V12.15ZM14.78,15.77H29.42l2.48,4.69a.27.27,0,0,1-.23.12H12.52a.25.25,0,0,1-.22-.11ZM24,32H20.14V27.75a1.93,1.93,0,0,1,3.86,0Zm6.72,0H25.85V27.75a3.78,3.78,0,0,0-7.56,0V32H13.46a.31.31,0,0,1-.27-.31V22.42H31v9.31A.3.3,0,0,1,30.72,32Z"/></g></g></g></svg>